<svg xmlns="http://www.w3.org/2000/svg" width="24.84" height="33.119" viewBox="0 0 24.84 33.119"><defs><style>.a{fill:#280071;}</style></defs><g transform="translate(0)"><path class="a" d="M88.637,7.1,81.738.2A.689.689,0,0,0,81.25,0H66.76A2.763,2.763,0,0,0,64,2.76v27.6a2.763,2.763,0,0,0,2.76,2.76H86.08a2.763,2.763,0,0,0,2.76-2.76V7.59A.689.689,0,0,0,88.637,7.1Zm-6.7-4.746L86.484,6.9H83.32a1.382,1.382,0,0,1-1.38-1.38Zm5.52,28a1.382,1.382,0,0,1-1.38,1.38H66.76a1.382,1.382,0,0,1-1.38-1.38V2.76a1.382,1.382,0,0,1,1.38-1.38h13.8V5.52a2.763,2.763,0,0,0,2.76,2.76h4.14Z" transform="translate(-64)"/><path class="a" d="M139.8,179.882a20,20,0,0,1-1.65-1.424c-.526-.526-.994-1.035-1.4-1.52a15.449,15.449,0,0,0,.913-3.512c0-2.29-.827-2.76-2.07-2.76-.944,0-2.07.491-2.07,2.826a6.616,6.616,0,0,0,1.682,3.732c-.274.835-.6,1.8-.956,2.883-.174.521-.363,1-.562,1.449-.162.072-.32.146-.472.222-.548.274-1.069.521-1.552.75-2.2,1.043-3.659,1.733-3.659,3.1,0,.989,1.075,1.6,2.07,1.6,1.283,0,3.22-1.714,4.635-4.6a27.451,27.451,0,0,1,4.736-1.278c1.155.888,2.43,1.738,3.048,1.738,1.711,0,2.07-.989,2.07-1.819,0-1.631-1.864-1.631-2.76-1.631A16.338,16.338,0,0,0,139.8,179.882Zm-9.728,5.964a1.09,1.09,0,0,1-.69-.222c0-.489,1.459-1.181,2.87-1.849l.273-.129C131.486,185.149,130.461,185.846,130.07,185.846Zm4.83-12.354c0-1.446.449-1.446.69-1.446.488,0,.69,0,.69,1.38a11.06,11.06,0,0,1-.549,2.155A4.24,4.24,0,0,1,134.9,173.492Zm.529,7.416q.065-.18.125-.364c.256-.768.487-1.458.692-2.079q.43.473.926.969c.129.129.45.42.877.785C137.2,180.4,136.294,180.634,135.429,180.908Zm7.751.359c0,.31,0,.439-.64.443a5.085,5.085,0,0,1-1.159-.662c.195-.022.338-.032.419-.032C142.819,181.016,143.108,181.116,143.18,181.267Z" transform="translate(-123.86 -159.626)"/></g></svg>