<svg xmlns="http://www.w3.org/2000/svg" width="24.999" height="33.119" viewBox="0 0 24.999 33.119"><defs><style>.a{fill:#280071;}</style></defs><g transform="translate(0)"><path class="a" d="M173.327,161.737a2.342,2.342,0,0,0-.805-.436,4.751,4.751,0,0,0-1.04-.1h-1.544a.888.888,0,0,0-.57.168.824.824,0,0,0-.168.57v4.329a1,1,0,0,0,.067.47.417.417,0,0,0,.2.268.943.943,0,0,0,.5.1h1.544a5.026,5.026,0,0,0,.738-.067,4.052,4.052,0,0,0,.6-.168,1.88,1.88,0,0,0,.5-.336,3.008,3.008,0,0,0,.5-.638,2.866,2.866,0,0,0,.3-.805,4.336,4.336,0,0,0,.1-.973A2.945,2.945,0,0,0,173.327,161.737Zm-.872,4.161a1.36,1.36,0,0,1-.3.168,1.477,1.477,0,0,1-.336.067h-1.376v-4.027h.805a2.646,2.646,0,0,1,.94.134,1.048,1.048,0,0,1,.638.57,2.723,2.723,0,0,1,.268,1.309A2.3,2.3,0,0,1,172.455,165.9Z" transform="translate(-159.066 -147.677)"/><path class="a" d="M73.332,6.61,73.3,6.577V6.543L66.923.168,66.889.134A.033.033,0,0,1,66.856.1a.033.033,0,0,1-.034-.034A.552.552,0,0,0,66.486,0h-15.8A2.233,2.233,0,0,0,49.1.638l-.034.034A2.343,2.343,0,0,0,48.4,2.282V30.838a2.282,2.282,0,0,0,.671,1.611,2.344,2.344,0,0,0,1.611.671H71.117a2.282,2.282,0,0,0,1.611-.671,2.344,2.344,0,0,0,.671-1.611V6.946A.993.993,0,0,0,73.332,6.61ZM67.124,2.416l3.792,3.792H68.131a.914.914,0,0,1-.7-.3,1.046,1.046,0,0,1-.3-.7V2.416Zm4.832,28.422a.921.921,0,0,1-.872.872h-20.4a.965.965,0,0,1-.6-.235.809.809,0,0,1-.235-.6V2.248a.84.84,0,0,1,.268-.6l.034-.034a.952.952,0,0,1,.57-.235H65.748V5.168a2.437,2.437,0,0,0,.738,1.745,2.488,2.488,0,0,0,1.745.7h3.725V30.838Z" transform="translate(-48.4)"/><path class="a" d="M107.56,162.036a1.3,1.3,0,0,0-.638-.336,4.159,4.159,0,0,0-1.04-.1h-1.544a.824.824,0,0,0-.57.168c-.134.1-.168.3-.168.57V166.9a.854.854,0,0,0,.168.537.515.515,0,0,0,.436.168.591.591,0,0,0,.436-.2.854.854,0,0,0,.168-.537V165.19h1.107a2.528,2.528,0,0,0,1.644-.47,1.7,1.7,0,0,0,.57-1.376,1.968,1.968,0,0,0-.134-.772A2.345,2.345,0,0,0,107.56,162.036Zm-.805,1.879a.852.852,0,0,1-.436.3,2.231,2.231,0,0,1-.7.1h-.805v-1.812h.805a1.66,1.66,0,0,1,1.074.268.835.835,0,0,1,.235.638A1.117,1.117,0,0,1,106.754,163.915Z" transform="translate(-98.969 -148.044)"/><path class="a" d="M242.738,160.8a1.115,1.115,0,0,0-.436.134.405.405,0,0,0-.235.235.793.793,0,0,0-.067.436v4.53a.788.788,0,0,0,.168.537.515.515,0,0,0,.436.168.707.707,0,0,0,.436-.168.854.854,0,0,0,.168-.537v-1.946h1.98a.535.535,0,0,0,.4-.134.389.389,0,0,0,.134-.336.431.431,0,0,0-.134-.336.719.719,0,0,0-.4-.134h-1.98v-1.51h2.349a.569.569,0,0,0,.436-.134.487.487,0,0,0,0-.671.569.569,0,0,0-.436-.134Z" transform="translate(-225.759 -147.311)"/></g></svg>